<?xml version="1.0" encoding="utf-8"?>
<!-- Uploaded to: SVG Repo, www.svgrepo.com, Generator: SVG Repo Mixer Tools -->
<svg fill="#000000" version="1.1" id="Layer_1" xmlns="http://www.w3.org/2000/svg" xmlns:xlink="http://www.w3.org/1999/xlink" 
	 width="800px" height="800px" viewBox="0 0 182 260" enable-background="new 0 0 182 260" xml:space="preserve">
<path d="M88.792,228.626l-0.235,0.078c-0.517-0.129-2.453-1.355-4.016-2.463l-0.285-0.202l-5.396,3.042l3.973,5.298h5.304
	l0.12-0.388c1.407-4.573,1.083-4.888,0.847-5.119L88.792,228.626z M74.824,238.781c-0.808,0.135-3.762,0.049-5.084-0.005
	l-2.041-2.041l-4.809,5.505l0.93,0.186c4.108,0.821,5.99,1.033,6.887,1.033c0.647,0,0.781-0.11,0.866-0.18l0.228-0.215v-0.141
	c0.246-0.303,1.251-1.089,1.868-1.571c1.693-1.324,2.148-1.68,1.91-2.224C75.533,239.024,75.342,238.695,74.824,238.781z
	 M40.617,258h2.253c1.3,0,13.113-1.409,13.615-1.468l1.122-0.134l-4.746-4.747L40.617,258z M94.117,100.917l-4.493-1.283
	l-2.226,5.343l5.359,2.357l4.005-2.892L94.117,100.917z M126.271,170.731l7.103-6.561l7.616,5.077l-5.505,5.22l-7.616-0.456
	L126.271,170.731z M92.867,147.482l-2.082,4.621l1.826,6.018l8.301-4.308l10.298-7.73l1.312-8.358l-9.299-0.485l-11.838-7.303
	l-2.082,3.138l4.764,2.14L92.867,147.482z M39.41,150.249l0.969,6.589l-17.258,16.088l-4.935,6.076l-9.099,5.249l-7.075,7.93
	l9.243-1.055l6.961-8.044l4.45-1.227l5.306-6.219l4.621-8.615l6.133-1.54l3.081-5.191l7.046-3.566l-3.822-6.162L39.41,150.249z
	 M101.568,102.497l1.083-10.811l17.572,18.342l8.244-2.767l-6.447-7.844l6.447-4.907l-9.842-3.423l-6.789,2.739l-3.651-8.757
	l-7.16-1.284l-4.479,8.387l-9.328-5.562l-3.109-15.233L80.8,65.242l7.017-14.663l8.272-2.967l6.162-16.374l-6.333-8.672
	L95.89,11.471L74.295,2l-7.046,1.227l-3.537,12.294l-0.77,18.685l-1.74,4.593l1.626,9.015l-2.71,2.967l-6.532-3.908l-0.485,15.775
	l7.189,12.038l11.781,2.254l1.027,3.623l-0.228,0.2l-6.847,5.22l0.028,4.793l12.637,7.274l6.732-5.962l8.985,3.053L101.568,102.497z
	 M148.665,135.758l4.621,10.126l5.62-1.027l-1.768-15.661l-5.477-11.724l-16.745,0.969l1.797,4.65L148.665,135.758z
	 M179.358,210.353l-3.851-3.423l1.483-6.361l-2.995-13.892l-7.303-10.212l-8.929,0.969l1.055,8.216l-1.426,0.685l-4.536-1.912
	l-1.654,4.821l-6.39-2.225l-0.485,7.417l-20.282,11.41l-0.2-0.799l3.708-2.739l-2.196-8.701l-12.893,1.712l-2.995,7.075
	l-12.066,2.653l-3.109,3.737l-1.598,9.842l-2.739,2.795l4.793,4.336l8.472-15.946l9.528,0.913l2.482,3.794l7.417-6.076l11.553,9.784
	l-3.452,10.783l0.371,6.133l16.945,10.925l5.762-4.422l1.312,9.784l6.903-7.075l-1.854-10.839l-3.395-1.54l2.111-8.016l3.167-4.764
	l2.939-1.74l4.821,9.756l10.156-8.016L179.358,210.353z M129.466,159.748l-2.482-7.189l-8.044,13.692l8.444-4.05L129.466,159.748z
	 M121.792,151.162l-6.846-3.252l-5.562,7.245l-0.771,9.556l-7.674,2.767l-1.369,5.249l15.718,11.325l-1.398-14.548L121.792,151.162z
	 M71.445,99.73l-6.162-0.228l-1.626,4.05l5.163,5.762l0.713,5.249l8.387,9.813l5.676-8.072l-2.111-11.125L71.445,99.73z
	 M121.992,121.98l-3.081,2.881l-1.349,6.198l6.087-2.83l7.5,5.333l0.002-7.238L121.992,121.98z M153.884,159.777l-4.992-8.187
	l0.571-7.674l-1.227-2.596l-10.783,0.656l2.767,6.104l4.364,3.081l-0.171,12.18L153.884,159.777z M50.461,137.075l-1.506-10.718
	l4.521,3.015l2.344-0.837l1.173,3.181L50.461,137.075z"/>
</svg>